<svg width="747" height="765" viewBox="0 0 747 765" fill="none" xmlns="http://www.w3.org/2000/svg">
<path d="M580.917 467.977C580.954 469.312 580.978 470.649 580.991 471.989L579.991 471.998C579.997 472.665 580 473.332 580 474C580 474.668 579.997 475.336 579.991 476.003L580.991 476.012C580.978 477.351 580.954 478.689 580.917 480.023L579.917 479.995C579.88 481.324 579.831 482.649 579.77 483.973L580.769 484.019C580.708 485.352 580.634 486.682 580.548 488.01L579.55 487.945C579.464 489.276 579.366 490.603 579.255 491.928L580.252 492.011C580.141 493.342 580.017 494.67 579.882 495.996L578.887 495.894C578.753 497.214 578.606 498.532 578.447 499.846L579.44 499.966C579.279 501.295 579.106 502.621 578.921 503.944L577.931 503.806C577.746 505.123 577.55 506.436 577.342 507.747L578.33 507.904C578.121 509.22 577.9 510.533 577.667 511.843L576.682 511.668C576.449 512.979 576.203 514.287 575.946 515.592L576.927 515.785C576.669 517.096 576.399 518.403 576.117 519.706L575.139 519.495C574.858 520.792 574.566 522.086 574.261 523.377L575.235 523.606C574.928 524.907 574.609 526.204 574.279 527.497L573.31 527.25C572.981 528.538 572.641 529.822 572.288 531.103L573.252 531.368C572.898 532.654 572.533 533.937 572.156 535.215L571.197 534.932C570.821 536.207 570.433 537.478 570.034 538.745L570.988 539.046C570.587 540.319 570.175 541.589 569.751 542.854L568.803 542.536C568.381 543.796 567.947 545.052 567.503 546.303L568.445 546.638C567.998 547.895 567.54 549.149 567.071 550.398L566.135 550.046C565.668 551.29 565.189 552.529 564.7 553.764L565.629 554.133C565.138 555.374 564.635 556.61 564.121 557.842L563.198 557.457C562.687 558.683 562.164 559.904 561.631 561.121L562.547 561.522C562.012 562.744 561.466 563.962 560.909 565.174L560 564.757C559.445 565.964 558.88 567.167 558.304 568.365L559.205 568.799C558.627 570.001 558.039 571.199 557.439 572.392L556.546 571.943C555.95 573.129 555.343 574.311 554.726 575.488L555.612 575.952C554.992 577.134 554.362 578.311 553.722 579.483L552.844 579.003C552.207 580.169 551.56 581.33 550.903 582.486L551.772 582.981C551.113 584.139 550.444 585.293 549.764 586.441L548.904 585.932C548.227 587.075 547.541 588.214 546.845 589.347L547.697 589.871C546.998 591.008 546.289 592.14 545.57 593.267L544.727 592.729C544.014 593.848 543.291 594.961 542.558 596.069L543.392 596.62C542.656 597.733 541.911 598.84 541.156 599.942L540.331 599.377C539.579 600.474 538.817 601.565 538.046 602.652L538.862 603.23C538.091 604.316 537.311 605.396 536.522 606.471L535.716 605.879C534.93 606.949 534.135 608.014 533.33 609.074L534.126 609.678C533.318 610.742 532.501 611.8 531.675 612.852L530.889 612.235C530.07 613.278 529.242 614.315 528.405 615.347L529.181 615.977C528.342 617.012 527.493 618.041 526.636 619.065L525.869 618.423C525.015 619.443 524.152 620.456 523.28 621.464L524.037 622.119C523.166 623.126 522.286 624.128 521.397 625.124L520.651 624.458C519.767 625.448 518.875 626.433 517.975 627.411L518.711 628.088C517.807 629.071 516.894 630.047 515.974 631.017L515.248 630.329C514.334 631.292 513.412 632.249 512.481 633.2L513.196 633.9C512.265 634.852 511.325 635.797 510.378 636.737L509.674 636.027C508.73 636.963 507.778 637.893 506.818 638.817L507.512 639.537C506.55 640.463 505.581 641.382 504.604 642.294L503.921 641.564C502.952 642.469 501.976 643.368 500.991 644.26L501.663 645.001C500.675 645.897 499.68 646.787 498.676 647.67L498.016 646.92C497.017 647.799 496.01 648.672 494.996 649.539L495.646 650.299C494.635 651.164 493.617 652.021 492.591 652.873L491.953 652.103C490.931 652.952 489.902 653.794 488.865 654.629L489.493 655.408C488.453 656.246 487.406 657.078 486.351 657.904L485.735 657.117C484.691 657.934 483.64 658.745 482.582 659.549L483.187 660.345C482.126 661.151 481.059 661.951 479.985 662.744L479.391 661.939C478.321 662.73 477.243 663.513 476.159 664.29L476.742 665.103C475.659 665.879 474.569 666.649 473.473 667.412L472.901 666.591C471.813 667.349 470.717 668.1 469.616 668.844L470.175 669.673C469.07 670.42 467.958 671.16 466.839 671.893L466.291 671.057C465.178 671.786 464.06 672.509 462.934 673.225L463.471 674.069C462.349 674.783 461.221 675.49 460.086 676.19L459.561 675.339C458.43 676.037 457.294 676.728 456.151 677.413L456.665 678.27C455.518 678.957 454.365 679.637 453.206 680.309L452.704 679.445C451.558 680.11 450.406 680.768 449.249 681.42L449.739 682.292C448.578 682.945 447.412 683.591 446.239 684.231L445.76 683.353C444.592 683.99 443.418 684.62 442.238 685.244L442.705 686.128C441.527 686.75 440.343 687.365 439.154 687.974L438.699 687.083C437.518 687.688 436.331 688.285 435.14 688.875L435.583 689.771C434.388 690.363 433.187 690.948 431.98 691.525L431.549 690.623C430.348 691.198 429.142 691.766 427.931 692.327L428.351 693.234C427.145 693.793 425.933 694.344 424.717 694.888L424.308 693.975C423.096 694.518 421.878 695.053 420.655 695.581L421.052 696.499C419.825 697.029 418.594 697.552 417.357 698.067L416.972 697.144C415.748 697.654 414.519 698.157 413.285 698.653L413.658 699.581C412.422 700.077 411.182 700.566 409.938 701.048L409.577 700.116C408.336 700.596 407.09 701.069 405.84 701.535L406.19 702.472C404.939 702.938 403.684 703.396 402.424 703.847L402.087 702.906C400.839 703.353 399.587 703.792 398.331 704.225L398.656 705.17C397.395 705.604 396.131 706.03 394.861 706.449L394.548 705.5C393.283 705.917 392.013 706.327 390.739 706.73L391.041 707.684C389.773 708.085 388.501 708.478 387.224 708.864L386.935 707.907C385.664 708.292 384.39 708.669 383.112 709.038L383.389 709.999C382.107 710.369 380.821 710.733 379.531 711.088L379.265 710.124C377.982 710.478 376.696 710.824 375.406 711.163L375.66 712.13C374.374 712.467 373.084 712.797 371.791 713.12L371.549 712.149C370.26 712.471 368.966 712.785 367.67 713.091L367.9 714.065C366.599 714.372 365.295 714.672 363.987 714.964L363.769 713.988C362.474 714.277 361.177 714.559 359.876 714.833L360.082 715.812C358.78 716.086 357.474 716.353 356.165 716.612L355.971 715.631C354.665 715.89 353.357 716.141 352.045 716.384L352.227 717.367C350.914 717.611 349.598 717.847 348.278 718.075L348.108 717.09C346.802 717.315 345.494 717.534 344.183 717.744L344.341 718.732C343.026 718.943 341.707 719.147 340.386 719.343L340.239 718.353C338.921 718.549 337.601 718.737 336.277 718.917L336.412 719.908C335.092 720.087 333.77 720.259 332.444 720.424L332.321 719.431C331.006 719.594 329.687 719.75 328.366 719.898L328.477 720.892C327.151 721.04 325.823 721.18 324.492 721.313L324.393 720.318C323.066 720.451 321.736 720.576 320.404 720.693L320.492 721.689C319.169 721.805 317.843 721.914 316.515 722.015L316.439 721.018C315.116 721.119 313.79 721.212 312.462 721.297L312.526 722.295C311.194 722.381 309.859 722.458 308.522 722.529L308.47 721.53C307.14 721.6 305.808 721.662 304.474 721.716L304.514 722.715C303.188 722.769 301.859 722.816 300.527 722.854L300.498 721.855C299.171 721.893 297.841 721.924 296.509 721.948L296.526 722.947C295.19 722.971 293.852 722.986 292.512 722.994L292.506 721.994C291.838 721.998 291.169 722 290.5 722C289.831 722 289.162 721.998 288.493 721.994L288.487 722.994C287.147 722.986 285.809 722.971 284.473 722.947L284.491 721.948C283.159 721.924 281.829 721.893 280.501 721.855L280.472 722.854C279.141 722.816 277.812 722.769 276.485 722.715L276.526 721.716C275.191 721.662 273.859 721.6 272.53 721.53L272.477 722.529C271.14 722.458 269.806 722.381 268.473 722.295L268.538 721.297C267.209 721.212 265.884 721.119 264.56 721.018L264.485 722.015C263.156 721.914 261.831 721.805 260.508 721.689L260.596 720.693C259.263 720.576 257.934 720.451 256.607 720.318L256.507 721.313C255.176 721.18 253.848 721.04 252.523 720.891L252.634 719.898C251.313 719.75 249.994 719.594 248.678 719.431L248.555 720.424C247.23 720.259 245.907 720.087 244.588 719.908L244.723 718.917C243.399 718.737 242.078 718.549 240.761 718.353L240.614 719.343C239.292 719.147 237.974 718.943 236.658 718.732L236.817 717.744C235.506 717.534 234.197 717.315 232.892 717.09L232.722 718.075C231.402 717.847 230.085 717.611 228.772 717.367L228.955 716.384C227.643 716.141 226.334 715.89 225.029 715.631L224.835 716.612C223.526 716.353 222.22 716.086 220.918 715.812L221.124 714.833C219.823 714.559 218.525 714.277 217.231 713.988L217.013 714.964C215.705 714.672 214.401 714.372 213.1 714.064L213.33 713.091C212.033 712.785 210.74 712.471 209.451 712.149L209.209 713.12C207.915 712.797 206.626 712.467 205.34 712.13L205.594 711.162C204.304 710.824 203.017 710.478 201.735 710.124L201.469 711.088C200.179 710.733 198.893 710.369 197.61 709.999L197.888 709.038C196.61 708.668 195.335 708.292 194.065 707.907L193.775 708.864C192.499 708.478 191.227 708.085 189.959 707.684L190.26 706.73C188.987 706.327 187.717 705.917 186.452 705.5L186.138 706.449C184.869 706.03 183.604 705.604 182.344 705.17L182.669 704.225C181.412 703.792 180.16 703.353 178.912 702.906L178.575 703.847C177.316 703.396 176.061 702.937 174.81 702.472L175.159 701.534C173.909 701.069 172.664 700.596 171.423 700.116L171.062 701.048C169.817 700.566 168.577 700.077 167.342 699.581L167.715 698.653C166.481 698.157 165.252 697.654 164.027 697.144L163.643 698.067C162.406 697.552 161.175 697.029 159.948 696.499L160.344 695.581C159.122 695.053 157.904 694.518 156.691 693.975L156.283 694.888C155.067 694.344 153.855 693.793 152.649 693.234L153.069 692.327C151.858 691.766 150.652 691.198 149.451 690.623L149.019 691.525C147.813 690.947 146.612 690.363 145.416 689.771L145.86 688.874C144.668 688.284 143.482 687.687 142.301 687.083L141.846 687.974C140.656 687.365 139.473 686.75 138.295 686.128L138.762 685.243C137.582 684.62 136.408 683.99 135.239 683.353L134.761 684.23C133.588 683.591 132.422 682.945 131.261 682.291L131.751 681.42C130.593 680.768 129.441 680.11 128.295 679.444L127.793 680.309C126.635 679.637 125.482 678.957 124.335 678.27L124.849 677.412C123.706 676.728 122.569 676.037 121.439 675.339L120.913 676.19C119.779 675.49 118.651 674.782 117.529 674.069L118.065 673.225C116.94 672.509 115.821 671.786 114.709 671.057L114.161 671.893C113.042 671.16 111.93 670.42 110.824 669.673L111.384 668.844C110.282 668.1 109.187 667.349 108.098 666.591L107.527 667.412C106.431 666.649 105.341 665.879 104.258 665.103L104.84 664.29C103.756 663.513 102.679 662.73 101.609 661.939L101.015 662.744C99.9407 661.951 98.8734 661.151 97.813 660.345L98.4182 659.549C97.3602 658.745 96.3091 657.934 95.2651 657.116L94.6486 657.904C93.5942 657.078 92.5469 656.246 91.5069 655.408L92.1345 654.629C91.0982 653.794 90.069 652.952 89.0471 652.103L88.4084 652.873C87.3828 652.021 86.3645 651.163 85.3537 650.299L86.0035 649.539C84.9896 648.672 83.9831 647.799 82.9842 646.919L82.3234 647.67C81.3202 646.787 80.3246 645.897 79.3366 645.001L80.0084 644.26C79.0241 643.368 78.0475 642.469 77.0786 641.564L76.396 642.294C75.4189 641.381 74.4496 640.462 73.4883 639.537L74.1817 638.817C73.2219 637.893 72.27 636.963 71.3261 636.027L70.6219 636.737C69.6745 635.797 68.7351 634.851 67.8039 633.899L68.5187 633.2C67.5881 632.249 66.6658 631.292 65.7517 630.329L65.0263 631.017C64.1055 630.047 63.1931 629.07 62.2892 628.088L63.025 627.411C62.1245 626.432 61.2324 625.448 60.3489 624.458L59.6027 625.124C58.7142 624.128 57.8343 623.126 56.963 622.118L57.7195 621.464C56.8478 620.456 55.9849 619.442 55.1308 618.423L54.3643 619.065C53.5068 618.041 52.6582 617.012 51.8185 615.977L52.5951 615.347C51.7582 614.315 50.9302 613.277 50.1113 612.234L49.3247 612.852C48.4985 611.8 47.6815 610.742 46.8736 609.678L47.6699 609.073C46.8653 608.014 46.0699 606.949 45.2838 605.879L44.4778 606.471C43.6885 605.396 42.9085 604.316 42.1379 603.23L42.9534 602.651C42.1825 601.565 41.421 600.473 40.6691 599.376L39.8442 599.942C39.0891 598.84 38.3436 597.733 37.6077 596.62L38.4418 596.068C37.709 594.961 36.9859 593.847 36.2726 592.729L35.4295 593.267C34.7108 592.14 34.0021 591.008 33.3033 589.87L34.1553 589.347C33.4589 588.214 32.7725 587.075 32.0962 585.932L31.2354 586.441C30.5562 585.292 29.8871 584.139 29.2281 582.98L30.0973 582.486C29.4398 581.33 28.7925 580.169 28.1554 579.003L27.2778 579.482C26.6375 578.31 26.0075 577.134 25.3879 575.952L26.2735 575.487C25.6566 574.311 25.0501 573.129 24.4541 571.943L23.5605 572.391C22.9613 571.199 22.3726 570.001 21.7945 568.798L22.6958 568.365C22.1199 567.167 21.5545 565.964 21 564.757L20.0913 565.174C19.5342 563.961 18.988 562.744 18.4527 561.522L19.3686 561.121C18.8355 559.904 18.3132 558.682 17.8018 557.456L16.8789 557.841C16.3651 556.609 15.8623 555.373 15.3706 554.132L16.3003 553.764C15.8108 552.529 15.3323 551.289 14.865 550.046L13.9289 550.397C13.4597 549.148 13.0016 547.895 12.5548 546.637L13.4971 546.302C13.0526 545.051 12.6193 543.796 12.1973 542.536L11.2491 542.854C10.8252 541.588 10.4127 540.319 10.0117 539.045L10.9656 538.745C10.5666 537.478 10.1791 536.207 9.80315 534.932L8.84399 535.215C8.46692 533.936 8.10138 532.654 7.74748 531.367L8.71167 531.102C8.35939 529.822 8.01871 528.537 7.68971 527.249L6.72082 527.497C6.39049 526.203 6.0719 524.906 5.76513 523.606L6.73843 523.376C6.4341 522.086 6.14146 520.792 5.86063 519.494L4.88326 519.706C4.60111 518.402 4.33082 517.095 4.07247 515.785L5.05359 515.591C4.79646 514.287 4.55123 512.979 4.31798 511.668L3.33343 511.843C3.10042 510.533 2.87931 509.22 2.67021 507.903L3.65783 507.746C3.4497 506.436 3.25352 505.122 3.06939 503.805L2.07902 503.944C1.89403 502.621 1.72114 501.295 1.56045 499.965L2.55322 499.845C2.39435 498.531 2.24746 497.214 2.11264 495.894L1.11782 495.995C0.982506 494.67 0.859306 493.342 0.748311 492.011L1.74485 491.928C1.63437 490.603 1.53604 489.275 1.44995 487.945L0.452038 488.009C0.366136 486.682 0.292369 485.351 0.230828 484.018L1.22977 483.972C1.16869 482.649 1.11971 481.323 1.08292 479.995L0.0833069 480.023C0.0463511 478.688 0.0216444 477.351 0.00927949 476.011L1.00924 476.002C1.00308 475.335 1 474.668 1 474C1 473.332 1.00308 472.664 1.00924 471.997L0.00928428 471.988C0.0216524 470.649 0.0463622 469.311 0.0833211 467.977L1.08294 468.005C1.11973 466.676 1.16871 465.351 1.22979 464.027L0.230852 463.981C0.292395 462.648 0.366166 461.318 0.452071 459.99L1.44998 460.055C1.53608 458.724 1.63441 457.397 1.74489 456.072L0.748352 455.989C0.85935 454.658 0.982553 453.33 1.11787 452.004L2.11269 452.106C2.24751 450.786 2.3944 449.468 2.55328 448.154L1.56051 448.034C1.7212 446.705 1.89409 445.379 2.07909 444.056L3.06945 444.194C3.25359 442.877 3.44977 441.564 3.65791 440.253L2.67029 440.096C2.87939 438.78 3.1005 437.467 3.33351 436.157L4.31806 436.332C4.55131 435.021 4.79655 433.713 5.05367 432.408L4.07256 432.215C4.33091 430.904 4.60121 429.597 4.88335 428.294L5.86072 428.505C6.14156 427.208 6.4342 425.914 6.73853 424.623L5.76523 424.394C6.072 423.093 6.3906 421.796 6.72093 420.503L7.68982 420.75C8.01882 419.462 8.35951 418.178 8.71178 416.897L7.7476 416.632C8.1015 415.346 8.46704 414.063 8.84412 412.785L9.80328 413.068C10.1793 411.793 10.5668 410.522 10.9657 409.255L10.0119 408.954C10.4129 407.681 10.8254 406.411 11.2493 405.146L12.1975 405.464C12.6194 404.204 13.0527 402.948 13.4973 401.697L12.555 401.362C13.0017 400.105 13.4598 398.851 13.9291 397.602L14.8652 397.954C15.3325 396.71 15.8109 395.471 16.3004 394.236L15.3708 393.867C15.8625 392.626 16.3652 391.39 16.879 390.158L17.802 390.543C18.3133 389.317 18.8356 388.096 19.3688 386.879L18.4528 386.478C18.9881 385.256 19.5344 384.038 20.0914 382.826L21.0001 383.243C21.5547 382.036 22.12 380.833 22.696 379.635L21.7947 379.201C22.3727 377.999 22.9614 376.801 23.5607 375.608L24.4543 376.057C25.0503 374.871 25.6568 373.689 26.2737 372.512L25.388 372.048C26.0076 370.866 26.6376 369.689 27.278 368.517L28.1555 368.997C28.7926 367.831 29.44 366.67 30.0975 365.514L29.2283 365.019C29.8872 363.861 30.5564 362.707 31.2356 361.559L32.0963 362.068C32.7727 360.925 33.4591 359.786 34.1554 358.653L33.3034 358.129C34.0022 356.992 34.711 355.86 35.4297 354.733L36.2728 355.271C36.9861 354.152 37.7092 353.039 38.442 351.931L37.6079 351.38C38.3437 350.267 39.0892 349.16 39.8444 348.058L40.6692 348.623C41.4211 347.526 42.1826 346.435 42.9536 345.348L42.1381 344.77C42.9087 343.684 43.6887 342.604 44.478 341.529L45.284 342.121C46.0701 341.051 46.8655 339.986 47.6701 338.926L46.8738 338.321C47.6816 337.258 48.4987 336.2 49.3249 335.148L50.1115 335.765C50.9304 334.722 51.7584 333.685 52.5953 332.653L51.8187 332.023C52.6584 330.988 53.507 329.959 54.3644 328.935L55.131 329.577C55.9851 328.557 56.848 327.544 57.7196 326.536L56.9632 325.881C57.8345 324.874 58.7144 323.872 59.6029 322.876L60.3491 323.542C61.2326 322.552 62.1247 321.567 63.0252 320.589L62.2894 319.912C63.1933 318.929 64.1057 317.953 65.0265 316.983L65.7518 317.671C66.6659 316.708 67.5883 315.751 68.5189 314.8L67.8041 314.1C68.7353 313.148 69.6747 312.203 70.6221 311.263L71.3263 311.973C72.2702 311.037 73.2221 310.107 74.1819 309.183L73.4885 308.463C74.4498 307.537 75.4191 306.618 76.3962 305.706L77.0788 306.436C78.0477 305.531 79.0243 304.632 80.0086 303.74L79.3368 302.999C80.3248 302.103 81.3204 301.213 82.3236 300.33L82.9844 301.08C83.9833 300.201 84.9898 299.328 86.0037 298.461L85.3539 297.701C86.3648 296.836 87.383 295.979 88.4086 295.127L89.0474 295.897C90.0692 295.048 91.0984 294.206 92.1347 293.371L91.5071 292.592C92.5472 291.754 93.5944 290.922 94.6489 290.096L95.2653 290.883C96.3093 290.066 97.3604 289.255 98.4184 288.451L97.8132 287.655C98.8736 286.849 99.9409 286.049 101.015 285.256L101.609 286.061C102.679 285.27 103.757 284.487 104.841 283.71L104.258 282.897C105.341 282.121 106.431 281.351 107.527 280.588L108.099 281.409C109.187 280.651 110.283 279.9 111.384 279.156L110.825 278.327C111.93 277.58 113.042 276.84 114.161 276.107L114.709 276.943C115.822 276.213 116.94 275.491 118.066 274.775L117.529 273.931C118.651 273.217 119.779 272.51 120.914 271.81L121.439 272.661C122.57 271.963 123.706 271.272 124.849 270.587L124.335 269.73C125.482 269.043 126.635 268.363 127.794 267.691L128.296 268.555C129.442 267.89 130.594 267.232 131.751 266.58L131.261 265.709C132.422 265.055 133.588 264.409 134.761 263.769L135.24 264.647C136.408 264.01 137.582 263.38 138.762 262.756L138.295 261.872C139.473 261.25 140.657 260.635 141.846 260.026L142.301 260.917C143.482 260.312 144.669 259.715 145.86 259.125L145.417 258.229C146.612 257.637 147.813 257.052 149.02 256.475L149.451 257.377C150.652 256.802 151.858 256.234 153.069 255.673L152.649 254.766C153.855 254.207 155.067 253.656 156.283 253.112L156.692 254.025C157.904 253.482 159.122 252.947 160.345 252.419L159.948 251.501C161.175 250.971 162.406 250.448 163.643 249.933L164.028 250.856C165.252 250.346 166.481 249.843 167.715 249.347L167.342 248.419C168.578 247.923 169.818 247.434 171.062 246.952L171.423 247.884C172.664 247.404 173.91 246.931 175.16 246.465L174.81 245.528C176.061 245.062 177.316 244.604 178.576 244.153L178.913 245.094C180.161 244.647 181.413 244.208 182.669 243.775L182.344 242.83C183.605 242.396 184.869 241.97 186.139 241.551L186.452 242.5C187.717 242.083 188.987 241.673 190.261 241.27L189.959 240.316C191.227 239.915 192.499 239.522 193.776 239.136L194.065 240.093C195.336 239.708 196.61 239.331 197.888 238.962L197.611 238.001C198.893 237.631 200.179 237.267 201.469 236.912L201.735 237.876C203.018 237.522 204.304 237.176 205.594 236.837L205.34 235.87C206.626 235.533 207.916 235.203 209.209 234.88L209.451 235.851C210.74 235.529 212.033 235.215 213.33 234.909L213.1 233.935C214.401 233.628 215.705 233.328 217.013 233.036L217.231 234.012C218.525 233.723 219.823 233.441 221.124 233.167L220.918 232.188C222.22 231.914 223.526 231.647 224.835 231.388L225.029 232.369C226.335 232.11 227.643 231.859 228.955 231.616L228.773 230.633C230.086 230.389 231.402 230.153 232.722 229.925L232.892 230.91C234.198 230.685 235.506 230.466 236.817 230.256L236.659 229.268C237.974 229.057 239.293 228.853 240.614 228.657L240.761 229.647C242.079 229.451 243.399 229.263 244.723 229.083L244.588 228.092C245.908 227.913 247.23 227.741 248.556 227.576L248.679 228.569C249.994 228.406 251.313 228.25 252.634 228.102L252.523 227.109C253.849 226.96 255.177 226.82 256.508 226.687L256.607 227.682C257.934 227.549 259.264 227.424 260.596 227.307L260.508 226.311C261.831 226.195 263.157 226.086 264.485 225.985L264.561 226.982C265.884 226.881 267.21 226.788 268.538 226.703L268.474 225.705C269.806 225.619 271.141 225.542 272.478 225.471L272.53 226.47C273.86 226.4 275.192 226.338 276.526 226.284L276.486 225.285C277.812 225.231 279.142 225.184 280.473 225.146L280.502 226.145C281.829 226.107 283.159 226.076 284.491 226.052L284.474 225.053C285.81 225.029 287.148 225.014 288.488 225.006L288.494 226.006C289.162 226.002 289.831 226 290.5 226C291.169 226 291.838 226.002 292.507 226.006L292.513 225.006C293.853 225.014 295.191 225.029 296.527 225.053L296.509 226.052C297.841 226.076 299.171 226.107 300.499 226.145L300.528 225.146C301.859 225.184 303.188 225.231 304.515 225.285L304.474 226.284C305.809 226.338 307.141 226.4 308.47 226.47L308.523 225.471C309.86 225.542 311.194 225.619 312.527 225.705L312.462 226.703C313.791 226.788 315.116 226.881 316.44 226.982L316.515 225.985C317.844 226.086 319.169 226.195 320.492 226.311L320.404 227.307C321.737 227.424 323.066 227.549 324.393 227.682L324.493 226.687C325.824 226.82 327.152 226.96 328.477 227.109L328.366 228.102C329.687 228.25 331.006 228.406 332.322 228.569L332.445 227.576C333.77 227.741 335.093 227.913 336.412 228.092L336.277 229.083C337.601 229.263 338.922 229.451 340.239 229.647L340.386 228.657C341.708 228.853 343.026 229.057 344.342 229.268L344.183 230.256C345.494 230.466 346.803 230.685 348.108 230.91L348.278 229.925C349.598 230.153 350.915 230.389 352.228 230.633L352.045 231.616C353.357 231.859 354.666 232.11 355.971 232.369L356.165 231.388C357.474 231.647 358.78 231.914 360.082 232.188L359.876 233.167C361.177 233.441 362.475 233.723 363.769 234.012L363.987 233.036C365.295 233.328 366.599 233.628 367.9 233.936L367.67 234.909C368.967 235.215 370.26 235.529 371.549 235.851L371.791 234.88C373.085 235.203 374.374 235.533 375.66 235.87L375.406 236.838C376.696 237.176 377.983 237.522 379.265 237.876L379.531 236.912C380.821 237.267 382.108 237.631 383.39 238.001L383.112 238.962C384.39 239.332 385.665 239.708 386.935 240.093L387.225 239.136C388.501 239.522 389.773 239.915 391.041 240.316L390.74 241.27C392.013 241.673 393.283 242.083 394.548 242.5L394.862 241.551C396.131 241.97 397.396 242.396 398.656 242.83L398.331 243.775C399.588 244.208 400.84 244.647 402.088 245.094L402.425 244.153C403.684 244.604 404.939 245.063 406.19 245.528L405.841 246.466C407.091 246.931 408.336 247.404 409.577 247.884L409.938 246.952C411.183 247.434 412.423 247.923 413.658 248.419L413.285 249.347C414.519 249.843 415.748 250.346 416.973 250.856L417.357 249.933C418.594 250.448 419.825 250.971 421.052 251.501L420.656 252.419C421.878 252.947 423.096 253.482 424.309 254.025L424.717 253.112C425.933 253.656 427.145 254.207 428.351 254.766L427.931 255.673C429.142 256.234 430.348 256.802 431.549 257.377L431.981 256.475C433.187 257.053 434.388 257.637 435.584 258.229L435.14 259.126C436.332 259.716 437.518 260.313 438.699 260.917L439.154 260.026C440.344 260.635 441.527 261.25 442.705 261.872L442.238 262.757C443.418 263.38 444.592 264.01 445.761 264.647L446.239 263.769C447.412 264.409 448.578 265.055 449.739 265.709L449.249 266.58C450.407 267.232 451.559 267.89 452.705 268.556L453.207 267.691C454.365 268.363 455.518 269.043 456.665 269.73L456.151 270.588C457.294 271.272 458.431 271.963 459.561 272.661L460.087 271.81C461.221 272.51 462.349 273.218 463.471 273.931L462.935 274.775C464.06 275.491 465.179 276.214 466.291 276.943L466.839 276.107C467.958 276.84 469.07 277.58 470.176 278.327L469.616 279.156C470.718 279.9 471.813 280.651 472.902 281.409L473.473 280.588C474.569 281.351 475.659 282.121 476.742 282.897L476.16 283.71C477.244 284.487 478.321 285.27 479.391 286.061L479.985 285.256C481.059 286.049 482.127 286.849 483.187 287.655L482.582 288.451C483.64 289.255 484.691 290.066 485.735 290.884L486.351 290.096C487.406 290.922 488.453 291.754 489.493 292.592L488.865 293.371C489.902 294.206 490.931 295.048 491.953 295.897L492.592 295.127C493.617 295.979 494.635 296.837 495.646 297.701L494.997 298.461C496.01 299.328 497.017 300.201 498.016 301.081L498.677 300.33C499.68 301.213 500.675 302.103 501.663 302.999L500.992 303.74C501.976 304.632 502.953 305.531 503.921 306.437L504.604 305.706C505.581 306.619 506.55 307.538 507.512 308.463L506.818 309.183C507.778 310.107 508.73 311.037 509.674 311.973L510.378 311.263C511.326 312.203 512.265 313.149 513.196 314.101L512.481 314.8C513.412 315.751 514.334 316.708 515.248 317.671L515.974 316.983C516.894 317.953 517.807 318.93 518.711 319.912L517.975 320.589C518.875 321.568 519.768 322.552 520.651 323.542L521.397 322.876C522.286 323.872 523.166 324.874 524.037 325.882L523.281 326.536C524.152 327.544 525.015 328.558 525.869 329.577L526.636 328.935C527.493 329.959 528.342 330.988 529.182 332.023L528.405 332.653C529.242 333.685 530.07 334.722 530.889 335.766L531.675 335.148C532.501 336.2 533.319 337.258 534.126 338.322L533.33 338.927C534.135 339.986 534.93 341.051 535.716 342.121L536.522 341.529C537.312 342.604 538.091 343.684 538.862 344.77L538.047 345.349C538.818 346.435 539.579 347.527 540.331 348.624L541.156 348.058C541.911 349.16 542.656 350.267 543.392 351.38L542.558 351.932C543.291 353.039 544.014 354.153 544.727 355.271L545.57 354.733C546.289 355.86 546.998 356.992 547.697 358.13L546.845 358.653C547.541 359.786 548.227 360.925 548.904 362.068L549.765 361.559C550.444 362.708 551.113 363.861 551.772 365.02L550.903 365.514C551.56 366.67 552.208 367.831 552.845 368.997L553.722 368.518C554.363 369.69 554.993 370.866 555.612 372.048L554.726 372.513C555.343 373.689 555.95 374.871 556.546 376.057L557.439 375.609C558.039 376.801 558.627 377.999 559.205 379.202L558.304 379.635C558.88 380.833 559.445 382.036 560 383.243L560.909 382.826C561.466 384.039 562.012 385.256 562.547 386.478L561.631 386.879C562.165 388.096 562.687 389.318 563.198 390.544L564.121 390.159C564.635 391.391 565.138 392.627 565.629 393.868L564.7 394.236C565.189 395.471 565.668 396.711 566.135 397.954L567.071 397.603C567.54 398.852 567.998 400.105 568.445 401.363L567.503 401.698C567.947 402.949 568.381 404.204 568.803 405.464L569.751 405.146C570.175 406.412 570.587 407.681 570.988 408.955L570.034 409.255C570.433 410.522 570.821 411.793 571.197 413.068L572.156 412.785C572.533 414.064 572.899 415.346 573.253 416.633L572.288 416.898C572.641 418.178 572.981 419.463 573.31 420.751L574.279 420.503C574.609 421.797 574.928 423.094 575.235 424.394L574.262 424.624C574.566 425.914 574.859 427.208 575.139 428.506L576.117 428.294C576.399 429.598 576.669 430.905 576.928 432.215L575.946 432.409C576.204 433.713 576.449 435.021 576.682 436.332L577.667 436.157C577.9 437.467 578.121 438.78 578.33 440.097L577.342 440.254C577.55 441.564 577.746 442.878 577.931 444.195L578.921 444.056C579.106 445.379 579.279 446.705 579.44 448.035L578.447 448.155C578.606 449.469 578.753 450.786 578.887 452.106L579.882 452.005C580.018 453.33 580.141 454.658 580.252 455.989L579.255 456.072C579.366 457.397 579.464 458.725 579.55 460.055L580.548 459.991C580.634 461.318 580.708 462.649 580.769 463.982L579.77 464.028C579.831 465.351 579.88 466.677 579.917 468.005L580.917 467.977Z" stroke="#111111" stroke-width="2" stroke-dasharray="4 4"/>
<path d="M403.038 738.5C-55.3623 602.5 178.704 225.167 353.038 53.5L572.538 -8.5L915.038 -55L1003.54 221.5C994.371 450.5 861.438 874.5 403.038 738.5Z" fill="#FAC710" fill-opacity="0.2"/>
<path d="M453.211 147.003C311.068 85.0602 206.188 217.738 171.016 292.82C60.8911 600.656 342.024 788.771 477.254 756.607C664.03 712.184 577.313 584.284 510.607 525.887C460.154 462.693 475.031 311.851 488.776 244.33C509.152 200.532 473.222 161.863 453.211 147.003Z" fill="#FAC710" stroke="#FAC710"/>
</svg>
