<svg width="52" height="22" viewBox="0 0 52 22" fill="none" xmlns="http://www.w3.org/2000/svg">
<path d="M18.704 21H14.952C14.6907 21 14.4807 20.9347 14.322 20.804C14.1727 20.6733 14.0513 20.524 13.958 20.356L9.268 12.586C9.19333 12.8193 9.10467 13.02 9.002 13.188L4.508 20.356C4.396 20.5147 4.26533 20.664 4.116 20.804C3.976 20.9347 3.78933 21 3.556 21H0.042L6.762 10.584L0.308 0.755999H4.06C4.32133 0.755999 4.508 0.793332 4.62 0.867999C4.74133 0.933332 4.85333 1.04533 4.956 1.204L9.562 8.624C9.65533 8.39067 9.76733 8.15733 9.898 7.924L14.126 1.274C14.2287 1.09667 14.3407 0.965999 14.462 0.881999C14.5833 0.797999 14.7373 0.755999 14.924 0.755999H18.522L12.012 10.43L18.704 21ZM31.4552 13.356L28.9912 6.622C28.8698 6.32333 28.7438 5.96867 28.6132 5.558C28.4825 5.14733 28.3518 4.704 28.2212 4.228C28.0998 4.704 27.9738 5.152 27.8432 5.572C27.7125 5.98267 27.5865 6.342 27.4652 6.65L25.0152 13.356H31.4552ZM38.1052 21H35.1932C34.8665 21 34.6005 20.9207 34.3952 20.762C34.1898 20.594 34.0358 20.3887 33.9332 20.146L32.4212 16.016H24.0352L22.5232 20.146C22.4485 20.3607 22.3038 20.5567 22.0892 20.734C21.8745 20.9113 21.6085 21 21.2912 21H18.3512L26.3172 0.755999H30.1532L38.1052 21ZM50.7006 4.438C50.5886 4.634 50.4672 4.77867 50.3366 4.872C50.2152 4.956 50.0612 4.998 49.8746 4.998C49.6786 4.998 49.4639 4.928 49.2306 4.788C49.0066 4.63867 48.7359 4.47533 48.4186 4.298C48.1012 4.12067 47.7279 3.962 47.2986 3.822C46.8786 3.67267 46.3792 3.598 45.8006 3.598C45.2779 3.598 44.8206 3.66333 44.4286 3.794C44.0366 3.91533 43.7052 4.088 43.4346 4.312C43.1732 4.536 42.9772 4.80667 42.8466 5.124C42.7159 5.432 42.6506 5.77267 42.6506 6.146C42.6506 6.622 42.7812 7.01867 43.0426 7.336C43.3132 7.65333 43.6679 7.924 44.1066 8.148C44.5452 8.372 45.0446 8.57267 45.6046 8.75C46.1646 8.92733 46.7386 9.11867 47.3266 9.324C47.9146 9.52 48.4886 9.75333 49.0486 10.024C49.6086 10.2853 50.1079 10.6213 50.5466 11.032C50.9852 11.4333 51.3352 11.928 51.5966 12.516C51.8672 13.104 52.0026 13.818 52.0026 14.658C52.0026 15.5727 51.8439 16.4313 51.5266 17.234C51.2186 18.0273 50.7612 18.7227 50.1546 19.32C49.5572 19.908 48.8246 20.3747 47.9566 20.72C47.0886 21.056 46.0946 21.224 44.9746 21.224C44.3306 21.224 43.6959 21.1587 43.0706 21.028C42.4452 20.9067 41.8432 20.7293 41.2646 20.496C40.6952 20.2627 40.1586 19.9827 39.6546 19.656C39.1506 19.3293 38.7026 18.9653 38.3106 18.564L39.4166 16.758C39.5099 16.6273 39.6312 16.52 39.7806 16.436C39.9299 16.3427 40.0886 16.296 40.2566 16.296C40.4899 16.296 40.7419 16.394 41.0126 16.59C41.2832 16.7767 41.6052 16.9867 41.9786 17.22C42.3519 17.4533 42.7859 17.668 43.2806 17.864C43.7846 18.0507 44.3866 18.144 45.0866 18.144C46.1599 18.144 46.9906 17.892 47.5786 17.388C48.1666 16.8747 48.4606 16.142 48.4606 15.19C48.4606 14.658 48.3252 14.224 48.0546 13.888C47.7932 13.552 47.4432 13.272 47.0046 13.048C46.5659 12.8147 46.0666 12.6187 45.5066 12.46C44.9466 12.3013 44.3772 12.1287 43.7986 11.942C43.2199 11.7553 42.6506 11.5313 42.0906 11.27C41.5306 11.0087 41.0312 10.668 40.5926 10.248C40.1539 9.828 39.7992 9.30533 39.5286 8.68C39.2672 8.04533 39.1366 7.266 39.1366 6.342C39.1366 5.60467 39.2812 4.886 39.5706 4.186C39.8692 3.486 40.2986 2.86533 40.8586 2.324C41.4186 1.78267 42.1092 1.34867 42.9306 1.022C43.7519 0.695333 44.6946 0.532 45.7586 0.532C46.9532 0.532 48.0546 0.718666 49.0626 1.092C50.0706 1.46533 50.9292 1.988 51.6386 2.66L50.7006 4.438Z" fill="#111111"/>
</svg>
