<svg width="78" height="70" viewBox="0 0 78 70" fill="none" xmlns="http://www.w3.org/2000/svg">
<path d="M76.5 35C76.5 53.353 59.8675 68.5 39 68.5C18.1325 68.5 1.5 53.353 1.5 35C1.5 16.647 18.1325 1.5 39 1.5C59.8675 1.5 76.5 16.647 76.5 35Z" fill="white" stroke="#FAC710" stroke-width="3"/>
<path d="M33.704 43H29.952C29.6907 43 29.4807 42.9347 29.322 42.804C29.1727 42.6733 29.0513 42.524 28.958 42.356L24.268 34.586C24.1933 34.8193 24.1047 35.02 24.002 35.188L19.508 42.356C19.396 42.5147 19.2653 42.664 19.116 42.804C18.976 42.9347 18.7893 43 18.556 43H15.042L21.762 32.584L15.308 22.756H19.06C19.3213 22.756 19.508 22.7933 19.62 22.868C19.7413 22.9333 19.8533 23.0453 19.956 23.204L24.562 30.624C24.6553 30.3907 24.7673 30.1573 24.898 29.924L29.126 23.274C29.2287 23.0967 29.3407 22.966 29.462 22.882C29.5833 22.798 29.7373 22.756 29.924 22.756H33.522L27.012 32.43L33.704 43ZM46.4552 35.356L43.9912 28.622C43.8698 28.3233 43.7438 27.9687 43.6132 27.558C43.4825 27.1473 43.3518 26.704 43.2212 26.228C43.0998 26.704 42.9738 27.152 42.8432 27.572C42.7125 27.9827 42.5865 28.342 42.4652 28.65L40.0152 35.356H46.4552ZM53.1052 43H50.1932C49.8665 43 49.6005 42.9207 49.3952 42.762C49.1898 42.594 49.0358 42.3887 48.9332 42.146L47.4212 38.016H39.0352L37.5232 42.146C37.4485 42.3607 37.3038 42.5567 37.0892 42.734C36.8745 42.9113 36.6085 43 36.2912 43H33.3512L41.3172 22.756H45.1532L53.1052 43ZM65.7006 26.438C65.5886 26.634 65.4672 26.7787 65.3366 26.872C65.2152 26.956 65.0612 26.998 64.8746 26.998C64.6786 26.998 64.4639 26.928 64.2306 26.788C64.0066 26.6387 63.7359 26.4753 63.4186 26.298C63.1012 26.1207 62.7279 25.962 62.2986 25.822C61.8786 25.6727 61.3792 25.598 60.8006 25.598C60.2779 25.598 59.8206 25.6633 59.4286 25.794C59.0366 25.9153 58.7052 26.088 58.4346 26.312C58.1732 26.536 57.9772 26.8067 57.8466 27.124C57.7159 27.432 57.6506 27.7727 57.6506 28.146C57.6506 28.622 57.7812 29.0187 58.0426 29.336C58.3132 29.6533 58.6679 29.924 59.1066 30.148C59.5452 30.372 60.0446 30.5727 60.6046 30.75C61.1646 30.9273 61.7386 31.1187 62.3266 31.324C62.9146 31.52 63.4886 31.7533 64.0486 32.024C64.6086 32.2853 65.1079 32.6213 65.5466 33.032C65.9852 33.4333 66.3352 33.928 66.5966 34.516C66.8672 35.104 67.0026 35.818 67.0026 36.658C67.0026 37.5727 66.8439 38.4313 66.5266 39.234C66.2186 40.0273 65.7612 40.7227 65.1546 41.32C64.5572 41.908 63.8246 42.3747 62.9566 42.72C62.0886 43.056 61.0946 43.224 59.9746 43.224C59.3306 43.224 58.6959 43.1587 58.0706 43.028C57.4452 42.9067 56.8432 42.7293 56.2646 42.496C55.6952 42.2627 55.1586 41.9827 54.6546 41.656C54.1506 41.3293 53.7026 40.9653 53.3106 40.564L54.4166 38.758C54.5099 38.6273 54.6312 38.52 54.7806 38.436C54.9299 38.3427 55.0886 38.296 55.2566 38.296C55.4899 38.296 55.7419 38.394 56.0126 38.59C56.2832 38.7767 56.6052 38.9867 56.9786 39.22C57.3519 39.4533 57.7859 39.668 58.2806 39.864C58.7846 40.0507 59.3866 40.144 60.0866 40.144C61.1599 40.144 61.9906 39.892 62.5786 39.388C63.1666 38.8747 63.4606 38.142 63.4606 37.19C63.4606 36.658 63.3252 36.224 63.0546 35.888C62.7932 35.552 62.4432 35.272 62.0046 35.048C61.5659 34.8147 61.0666 34.6187 60.5066 34.46C59.9466 34.3013 59.3772 34.1287 58.7986 33.942C58.2199 33.7553 57.6506 33.5313 57.0906 33.27C56.5306 33.0087 56.0312 32.668 55.5926 32.248C55.1539 31.828 54.7992 31.3053 54.5286 30.68C54.2672 30.0453 54.1366 29.266 54.1366 28.342C54.1366 27.6047 54.2812 26.886 54.5706 26.186C54.8692 25.486 55.2986 24.8653 55.8586 24.324C56.4186 23.7827 57.1092 23.3487 57.9306 23.022C58.7519 22.6953 59.6946 22.532 60.7586 22.532C61.9532 22.532 63.0546 22.7187 64.0626 23.092C65.0706 23.4653 65.9292 23.988 66.6386 24.66L65.7006 26.438Z" fill="#111111"/>
</svg>
